<?xml version="1.0" standalone="no"?>
<svg xmlns:xlink="http://www.w3.org/1999/xlink" id="wave" style="transform:rotate(180deg); transition: 0.3s" viewBox="0 0 1440 490" version="1.1" xmlns="http://www.w3.org/2000/svg"><defs><linearGradient id="sw-gradient-0" x1="0" x2="0" y1="1" y2="0"><stop stop-color="rgba(90, 63, 200, 1)" offset="0%"/><stop stop-color="rgba(224, 211, 243, 1)" offset="100%"/></linearGradient></defs><path style="transform:translate(0, 0px); opacity:1" fill="url(#sw-gradient-0)" d="M0,98L34.3,114.3C68.6,131,137,163,206,204.2C274.3,245,343,294,411,285.8C480,278,549,212,617,171.5C685.7,131,754,114,823,122.5C891.4,131,960,163,1029,204.2C1097.1,245,1166,294,1234,294C1302.9,294,1371,245,1440,253.2C1508.6,261,1577,327,1646,359.3C1714.3,392,1783,392,1851,400.2C1920,408,1989,425,2057,400.2C2125.7,376,2194,310,2263,285.8C2331.4,261,2400,278,2469,236.8C2537.1,196,2606,98,2674,65.3C2742.9,33,2811,65,2880,138.8C2948.6,212,3017,327,3086,375.7C3154.3,425,3223,408,3291,400.2C3360,392,3429,392,3497,359.3C3565.7,327,3634,261,3703,204.2C3771.4,147,3840,98,3909,65.3C3977.1,33,4046,16,4114,40.8C4182.9,65,4251,131,4320,155.2C4388.6,180,4457,163,4526,130.7C4594.3,98,4663,49,4731,81.7C4800,114,4869,229,4903,285.8L4937.1,343L4937.1,490L4902.9,490C4868.6,490,4800,490,4731,490C4662.9,490,4594,490,4526,490C4457.1,490,4389,490,4320,490C4251.4,490,4183,490,4114,490C4045.7,490,3977,490,3909,490C3840,490,3771,490,3703,490C3634.3,490,3566,490,3497,490C3428.6,490,3360,490,3291,490C3222.9,490,3154,490,3086,490C3017.1,490,2949,490,2880,490C2811.4,490,2743,490,2674,490C2605.7,490,2537,490,2469,490C2400,490,2331,490,2263,490C2194.3,490,2126,490,2057,490C1988.6,490,1920,490,1851,490C1782.9,490,1714,490,1646,490C1577.1,490,1509,490,1440,490C1371.4,490,1303,490,1234,490C1165.7,490,1097,490,1029,490C960,490,891,490,823,490C754.3,490,686,490,617,490C548.6,490,480,490,411,490C342.9,490,274,490,206,490C137.1,490,69,490,34,490L0,490Z"/></svg>